<svg xmlns="http://www.w3.org/2000/svg" xmlns:xlink="http://www.w3.org/1999/xlink" width="800" height="575" version="1.1" viewBox="0 0 800 575"><title>admission-control</title><desc>Created with Sketch.</desc><g id="admission-control" fill="none" fill-rule="evenodd" stroke="none" stroke-width="1"><rect width="800" height="575" x="0" y="0" fill="#B3BCC3"/><path id="Line" fill="#000" fill-rule="nonzero" d="M549.669503,397.17476 L476.759742,355.804614 L475.455128,355.064355 L476.935645,352.455128 L478.240258,353.195386 L551.15002,394.565532 L555.098065,387.607591 L566.934871,405.246753 L545.721458,404.1327 L549.669503,397.17476 Z"/><path id="Line" fill="#000" fill-rule="nonzero" d="M248.533622,390.340936 L396.783125,309.682392 L398.100733,308.965517 L399.534483,311.600733 L398.216875,312.317608 L249.967372,392.976152 L253.790704,400.003394 L232.560797,400.738958 L244.71029,383.313694 L248.533622,390.340936 Z"/><path id="Line" fill="#000" fill-rule="nonzero" d="M297.718502,266.070225 L145.251641,178.299984 L143.951657,177.551625 L145.448375,174.951657 L146.748359,175.700016 L299.21522,263.470256 L303.206467,256.537007 L314.933328,274.249453 L293.727255,273.003474 L297.718502,266.070225 Z"/><path id="Line" fill="#000" fill-rule="nonzero" d="M553.519939,229.240494 L402.723784,312.313825 L401.409959,313.037609 L399.962391,310.409959 L401.276216,309.686175 L552.072371,226.612844 L548.21219,219.605776 L569.437942,218.758739 L557.38012,236.247562 L553.519939,229.240494 Z"/><g id="Group" transform="translate(562.000000, 345.000000)"><circle id="Oval" cx="91.933" cy="91.933" r="91.933" fill="#5645F5"/><text id="Storage" fill="#FFF" font-family="Helvetica" font-size="25" font-weight="normal" line-spacing="30"><tspan x="48.219" y="101">Storage</tspan></text></g><g id="Group" transform="translate(562.000000, 85.000000)"><circle id="Oval" cx="91.933" cy="91.933" r="91.933" fill="#5645F5"/><text id="Mempool" fill="#FFF" font-family="Helvetica" font-size="25" font-weight="normal" line-spacing="30"><tspan x="40.09" y="101">Mempool</tspan></text></g><g id="Group" transform="translate(54.000000, 345.000000)"><circle id="Oval" cx="91.933" cy="91.933" r="91.933" fill="#5645F5"/><text id="Virtual-Machine" fill="#FFF" font-family="Helvetica" font-size="25" font-weight="normal" line-spacing="30"><tspan x="56.289" y="86">Virtual</tspan> <tspan x="44.253" y="116">Machine</tspan></text></g><g id="Group" transform="translate(54.000000, 85.000000)"><circle id="Oval" cx="91.933" cy="91.933" r="91.933" fill="#5645F5"/><text id="Client" fill="#FFF" font-family="Helvetica" font-size="25" font-weight="normal" line-spacing="30"><tspan x="60.042" y="100">Client</tspan></text></g><g id="Group" transform="translate(308.000000, 221.000000)"><circle id="Oval" cx="91.933" cy="91.933" r="91.933" fill="#2A227A"/><text id="Admission-Control" fill="#FFF" font-family="Helvetica" font-size="25" font-weight="normal" line-spacing="30"><tspan x="34.34" y="86">Admission</tspan> <tspan x="51.705" y="116">Control</tspan></text></g><text id="AC.1" fill="#15112C" font-family="Helvetica-Bold, Helvetica" font-size="25" font-weight="bold" letter-spacing="-1"><tspan x="251.521" y="227">AC.</tspan> <tspan x="291.575" y="227">1</tspan></text><text id="AC.2" fill="#15112C" font-family="Helvetica-Bold, Helvetica" font-size="25" font-weight="bold" letter-spacing="-1"><tspan x="231.521" y="361">AC.</tspan> <tspan x="271.575" y="361">2</tspan></text><text id="AC.3" fill="#15112C" font-family="Helvetica-Bold, Helvetica" font-size="25" font-weight="bold" letter-spacing="-1"><tspan x="485.521" y="222">AC.</tspan> <tspan x="525.575" y="222">3</tspan></text><text id="AC.4" fill="#15112C" font-family="Helvetica-Bold, Helvetica" font-size="25" font-weight="bold" letter-spacing="-1"><tspan x="505.521" y="361">AC.</tspan> <tspan x="545.575" y="361">4</tspan></text><text id="Admission-Control" fill="#FFF" font-family="Helvetica" font-size="40" font-weight="normal"><tspan x="30" y="61">Admission Control</tspan></text></g></svg>