<svg xmlns="http://www.w3.org/2000/svg" xmlns:xlink="http://www.w3.org/1999/xlink" width="800" height="525" version="1.1" viewBox="0 0 800 525"><title>consensus</title><desc>Created with Sketch.</desc><g id="consensus" fill="none" fill-rule="evenodd" stroke="none" stroke-width="1"><rect width="800" height="525" x="0" y="0" fill="#FFF"/><path id="Rectangle" fill="#B3BCC3" d="M15,-116 L193.981207,-116 C229.879716,-116 258.981207,-86.8985087 258.981207,-51 L258.981207,149.3555 C258.981207,185.114876 287.865897,214.158412 323.624735,214.354523 L741.356472,216.645477 C777.11531,216.841588 806,245.885124 806,281.6445 L806,717 C806,752.898509 776.898509,782 741,782 L15,782 C-20.8985087,782 -50,752.898509 -50,717 L-50,-51 C-50,-86.8985087 -20.8985087,-116 15,-116 Z"/><path id="Line" fill="#000" fill-rule="nonzero" d="M256.5,348.5 L308,348.5 L309.5,348.5 L309.5,351.5 L308,351.5 L256.5,351.5 L256.5,359.5 L237.5,350 L256.5,340.5 L256.5,348.5 Z"/><path id="Line" fill="#000" fill-rule="nonzero" d="M543.5,351.5 L489,351.5 L487.5,351.5 L487.5,348.5 L489,348.5 L543.5,348.5 L543.5,340.5 L562.5,350 L543.5,359.5 L543.5,351.5 Z"/><g id="Group" transform="translate(562.000000, 258.000000)"><circle id="Oval" cx="91.933" cy="91.933" r="91.933" fill="#5645F5"/><text id="Execution" fill="#FFF" font-family="Helvetica" font-size="25" font-weight="normal"><tspan x="36.605" y="100">Execution</tspan></text></g><g id="Group" transform="translate(54.000000, 258.000000)"><circle id="Oval" cx="91.933" cy="91.933" r="91.933" fill="#5645F5"/><text id="Mempool" fill="#FFF" font-family="Helvetica" font-size="25" font-weight="normal"><tspan x="40.09" y="100">Mempool</tspan></text></g><g id="Group" transform="translate(308.000000, 258.000000)"><circle id="Oval" cx="91.933" cy="91.933" r="91.933" fill="#221B62"/><text id="Consensus" fill="#FFF" font-family="Helvetica" font-size="25" font-weight="normal"><tspan x="29.463" y="100">Consensus</tspan></text></g><text id="CO.1" fill="#15112C" font-family="Helvetica-Bold, Helvetica" font-size="25" font-weight="bold" letter-spacing="-1"><tspan x="241.825" y="315">CO.</tspan> <tspan x="283.271" y="315">1</tspan></text><text id="Consensus" fill="#FFF" font-family="Helvetica" font-size="40" font-weight="normal"><tspan x="29" y="60">Consensus</tspan></text><path id="Line" fill="#000" fill-rule="nonzero" d="M398,229.5 L398,181.5 L386,181.5 L400.5,152.5 L415,181.5 L403,181.5 L403,229.5 L415,229.5 L400.5,258.5 L386,229.5 L398,229.5 Z"/><path id="Line" fill="#000" fill-rule="nonzero" d="M398,229.5 L398,181.5 L386,181.5 L400.5,152.5 L415,181.5 L403,181.5 L403,229.5 L415,229.5 L400.5,258.5 L386,229.5 L398,229.5 Z"/><g id="Group-2" fill="#B3BCC3" opacity=".75" transform="translate(316.000000, 22.000000)"><rect id="Rectangle" width="99" height="131" x="0" y="0" rx="28"/><rect id="Rectangle" width="99" height="131" x="28" y="0" rx="28"/><rect id="Rectangle" width="99" height="131" x="56" y="0" rx="28"/><rect id="Rectangle" width="99" height="131" x="85" y="0" rx="28"/><rect id="Rectangle" width="99" height="131" x="113" y="0" rx="28"/><rect id="Rectangle" width="99" height="131" x="141" y="0" rx="28"/><rect id="Rectangle" width="99" height="131" x="170" y="0" rx="28"/><rect id="Rectangle" width="99" height="131" x="198" y="0" rx="28"/><rect id="Rectangle" width="99" height="131" x="226" y="0" rx="28"/><rect id="Rectangle" width="99" height="131" x="254" y="0" rx="28"/><rect id="Rectangle" width="99" height="131" x="283" y="0" rx="28"/><rect id="Rectangle" width="99" height="131" x="311" y="0" rx="28"/><rect id="Rectangle" width="99" height="131" x="339" y="0" rx="28"/></g><text id="Other-Validators" fill="#FFF" font-family="Helvetica" font-size="25" font-weight="normal"><tspan x="446.102" y="96">Other Validators</tspan></text><text id="CO.3-&amp;-CO.4" fill="#15112C" font-family="Helvetica-Bold, Helvetica" font-size="25" font-weight="bold" letter-spacing="-1" line-spacing="30"><tspan x="487.825" y="292">CO.3 &amp;</tspan> <tspan x="498.825" y="325">CO.</tspan> <tspan x="540.271" y="325">4</tspan></text><text id="CO.2-&amp;-CO.4" fill="#15112C" font-family="Helvetica-Bold, Helvetica" font-size="25" font-weight="bold" letter-spacing="-1"><tspan x="413.177" y="210">CO.2 &amp; CO.</tspan> <tspan x="537.919" y="210">4</tspan></text></g></svg>