<svg xmlns="http://www.w3.org/2000/svg" xmlns:xlink="http://www.w3.org/1999/xlink" width="800" height="575" version="1.1" viewBox="0 0 800 575"><title>execution</title><desc>Created with Sketch.</desc><g id="execution" fill="none" fill-rule="evenodd" stroke="none" stroke-width="1"><rect width="800" height="575" x="0" y="0" fill="#B3BCC3"/><path id="Line" fill="#000" fill-rule="nonzero" d="M297.718502,266.070225 L145.251641,178.299984 L143.951657,177.551625 L145.448375,174.951657 L146.748359,175.700016 L299.21522,263.470256 L303.206467,256.537007 L314.933328,274.249453 L293.727255,273.003474 L297.718502,266.070225 Z"/><g id="Group" transform="translate(46.000000, 85.000000)"><circle id="Oval" cx="91.933" cy="91.933" r="91.933" fill="#5645F5"/><text id="Consensus" fill="#FFF" font-family="Helvetica" font-size="25" font-weight="normal"><tspan x="28.963" y="100">Consensus</tspan></text></g><text id="Execution" fill="#FFF" font-family="Helvetica" font-size="40" font-weight="normal"><tspan x="30" y="61">Execution</tspan></text><path id="Line" fill="#000" fill-rule="nonzero" d="M552.740234,314.5 L485,314.5 L483.5,314.5 L483.5,311.5 L485,311.5 L552.740234,311.5 L552.740234,303.5 L571.740234,313 L552.740234,322.5 L552.740234,314.5 Z"/><path id="Line" fill="#000" fill-rule="nonzero" d="M244.21252,401.366128 L399.242781,310.705156 L400.537625,309.947938 L402.052062,312.537625 L400.757219,313.294844 L245.726957,403.955815 L249.765456,410.861648 L228.568385,412.252406 L240.174021,394.460295 L244.21252,401.366128 Z"/><g id="Group" transform="translate(46.000000, 345.000000)"><circle id="Oval" cx="91.933" cy="91.933" r="91.933" fill="#5645F5"/><text id="Storage" fill="#FFF" font-family="Helvetica" font-size="25" font-weight="normal" line-spacing="30"><tspan x="48.219" y="101">Storage</tspan></text></g><g id="Group" transform="translate(573.000000, 221.000000)"><circle id="Oval" cx="91.933" cy="91.933" r="91.933" fill="#5645F5"/><text id="Virtual-Machine" fill="#FFF" font-family="Helvetica" font-size="25" font-weight="normal" line-spacing="30"><tspan x="56.289" y="86">Virtual</tspan> <tspan x="44.253" y="116">Machine</tspan></text></g><g id="Group" transform="translate(308.000000, 221.000000)"><circle id="Oval" cx="91.933" cy="91.933" r="91.933" fill="#2A227A"/><text id="Execution" fill="#FFF" font-family="Helvetica" font-size="25" font-weight="normal" line-spacing="30"><tspan x="37.105" y="100">Execution</tspan></text></g><text id="EX.2" fill="#15112C" font-family="Helvetica-Bold, Helvetica" font-size="25" font-weight="bold" letter-spacing="-1"><tspan x="505.9" y="288">EX.</tspan> <tspan x="543.196" y="288">2</tspan></text><text id="EX.4" fill="#15112C" font-family="Helvetica-Bold, Helvetica" font-size="25" font-weight="bold" letter-spacing="-1"><tspan x="242.9" y="360">EX.</tspan> <tspan x="280.196" y="360">4</tspan></text><text id="EX.1-&amp;-EX.3" fill="#15112C" font-family="Helvetica-Bold, Helvetica" font-size="25" font-weight="bold" letter-spacing="-1" line-spacing="30"><tspan x="237.328" y="215">EX.1 &amp; EX.</tspan> <tspan x="353.768" y="215">3</tspan></text></g></svg>