<svg xmlns="http://www.w3.org/2000/svg" xmlns:xlink="http://www.w3.org/1999/xlink" width="800" height="575" version="1.1" viewBox="0 0 800 575"><title>storage</title><desc>Created with Sketch.</desc><g id="storage" fill="none" fill-rule="evenodd" stroke="none" stroke-width="1"><rect width="800" height="575" x="0" y="0" fill="#B3BCC3"/><path id="Line" fill="#000" fill-rule="nonzero" d="M302.241931,369.307307 L204.187074,419.83339 L202.853684,420.520464 L201.479536,417.853684 L202.812926,417.16661 L300.867782,366.640527 L297.203386,359.529113 L318.444463,359.270975 L305.906327,376.41872 L302.241931,369.307307 Z"/><path id="Line" fill="#000" fill-rule="nonzero" d="M297.718502,266.070225 L145.251641,178.299984 L143.951657,177.551625 L145.448375,174.951657 L146.748359,175.700016 L299.21522,263.470256 L303.206467,256.537007 L314.933328,274.249453 L293.727255,273.003474 L297.718502,266.070225 Z"/><g id="Group" transform="translate(54.000000, 345.000000)"><circle id="Oval" cx="91.933" cy="91.933" r="91.933" fill="#5645F5"/><text id="Admission-Control" fill="#FFF" font-family="Helvetica" font-size="25" font-weight="normal" line-spacing="30"><tspan x="33.84" y="88">Admission</tspan> <tspan x="51.205" y="118">Control</tspan></text></g><g id="Group" transform="translate(54.000000, 85.000000)"><circle id="Oval" cx="91.933" cy="91.933" r="91.933" fill="#5645F5"/><text id="Virtual-Machine" fill="#FFF" font-family="Helvetica" font-size="25" font-weight="normal" line-spacing="30"><tspan x="56.789" y="86">Virtual</tspan> <tspan x="44.753" y="116">Machine</tspan></text></g><g id="Group" transform="translate(308.000000, 221.000000)"><circle id="Oval" cx="91.933" cy="91.933" r="91.933" fill="#2A227A"/><text id="Storage" fill="#FFF" font-family="Helvetica" font-size="25" font-weight="normal" line-spacing="30"><tspan x="48.219" y="100">Storage</tspan></text></g><text id="ST.1" fill="#15112C" font-family="Helvetica-Bold, Helvetica" font-size="25" font-weight="bold" letter-spacing="-1"><tspan x="257.988" y="228">ST.</tspan> <tspan x="291.108" y="228">1</tspan></text><text id="ST.4" fill="#15112C" font-family="Helvetica-Bold, Helvetica" font-size="25" font-weight="bold" letter-spacing="-1"><tspan x="227.988" y="363">ST.</tspan> <tspan x="261.108" y="363">4</tspan></text><text id="Storage" fill="#FFF" font-family="Helvetica" font-size="40" font-weight="normal"><tspan x="30" y="61">Storage</tspan></text><path id="Line" fill="#000" fill-rule="nonzero" d="M511.5,309.5 L563,309.5 L564.5,309.5 L564.5,312.5 L563,312.5 L511.5,312.5 L511.5,320.5 L492.5,311 L511.5,301.5 L511.5,309.5 Z"/><text id="ST.2-&amp;-ST.3" fill="#15112C" font-family="Helvetica-Bold, Helvetica" font-size="25" font-weight="bold" letter-spacing="-1" line-spacing="30"><tspan x="493.988" y="257">ST.2 &amp;</tspan> <tspan x="504.988" y="290">ST.</tspan> <tspan x="538.108" y="290">3</tspan></text><g id="Group" transform="translate(563.000000, 221.000000)"><circle id="Oval" cx="91.933" cy="91.933" r="91.933" fill="#5645F5"/><text id="Execution" fill="#FFF" font-family="Helvetica" font-size="25" font-weight="normal" line-spacing="30"><tspan x="36.605" y="101">Execution</tspan></text></g></g></svg>