<svg xmlns="http://www.w3.org/2000/svg" xmlns:xlink="http://www.w3.org/1999/xlink" width="1050" height="900" version="1.1" viewBox="0 0 1050 900"><title>validator</title><desc>Created with Sketch.</desc><g id="validator" fill="none" fill-rule="evenodd" stroke="none" stroke-width="1"><rect width="1050" height="900" x="0" y="0" fill="#FFF"/><path id="Rectangle" fill="#B3BCC3" d="M354,167 L902,167 C959.989899,167 1007,214.010101 1007,272 L1007,769 C1007,826.989899 959.989899,874 902,874 L354,874 C296.010101,874 249,826.989899 249,769 L249,272 C249,214.010101 296.010101,167 354,167 Z"/><path id="Line" fill="#000" fill-rule="nonzero" d="M526.5,287.983652 L474.5,287.983652 L473,287.983652 L473,284.983652 L474.5,284.983652 L526.5,284.983652 L526.5,276.983652 L545.5,286.483652 L526.5,295.983652 L526.5,287.983652 Z"/><path id="Line" fill="#000" fill-rule="nonzero" d="M746,284.983652 L798,284.983652 L799.5,284.983652 L799.5,287.983652 L798,287.983652 L746,287.983652 L746,295.983652 L727,286.483652 L746,276.983652 L746,284.983652 Z"/><path id="Line" fill="#000" fill-rule="nonzero" d="M889.316973,643.515752 L889.000073,611.498498 L888.985228,609.998571 L891.985081,609.968879 L891.999927,611.468806 L892.316826,643.48606 L900.316435,643.406882 L891.004949,662.499976 L881.317365,643.59493 L889.316973,643.515752 Z"/><path id="Line" fill="#000" fill-rule="nonzero" d="M889.316973,409.515752 L889.000073,377.498498 L888.985228,375.998571 L891.985081,375.968879 L891.999927,377.468806 L892.316826,409.48606 L900.316435,409.406882 L891.004949,428.499976 L881.317365,409.59493 L889.316973,409.515752 Z"/><path id="Line" fill="#000" fill-rule="nonzero" d="M749.5,523.5 L798,523.5 L799.5,523.5 L799.5,526.5 L798,526.5 L749.5,526.5 L749.5,534.5 L730.5,525 L749.5,515.5 L749.5,523.5 Z"/><path id="Line" fill="#000" fill-rule="nonzero" d="M542.867663,462.903994 L381.896337,288.015838 L380.880498,286.912175 L383.087825,284.880498 L384.103663,285.984162 L545.074989,460.872317 L550.961192,455.454512 L556.838613,475.867888 L536.981459,468.321799 L542.867663,462.903994 Z"/><path id="Line" fill="#000" fill-rule="nonzero" d="M799.496558,689.317897 L639.927254,526.048435 L638.878819,524.975688 L641.024312,522.878819 L642.072746,523.951565 L801.642051,687.221028 L807.363365,681.629376 L813.849478,701.857582 L793.775245,694.909549 L799.496558,689.317897 Z"/><path id="Line" fill="#000" fill-rule="nonzero" d="M640.063514,552.118713 L606.142218,588.914695 L612.024168,594.337118 L592.161099,601.867622 L598.054537,581.458864 L603.936486,586.881287 L637.857782,550.085305 L631.975832,544.662882 L651.838901,537.132378 L645.945463,557.541136 L640.063514,552.118713 Z"/><path id="Line" fill="#000" fill-rule="nonzero" d="M636.5,409.5 L636.5,376.483652 L636.5,374.983652 L639.5,374.983652 L639.5,376.483652 L639.5,409.5 L647.5,409.5 L638,428.5 L628.5,409.5 L636.5,409.5 Z"/><path id="Line" fill="#000" fill-rule="nonzero" d="M888.31006,165.5173 L888.190051,147.516033 L876.190318,147.596031 L890.496667,118.500011 L905.189674,147.402702 L893.18994,147.4827 L893.309949,165.483967 L905.309682,165.403969 L891.003333,194.499989 L876.310326,165.597298 L888.31006,165.5173 Z"/><path id="Line" fill="#000" fill-rule="nonzero" d="M635.31006,165.5173 L635.190051,147.516033 L623.190318,147.596031 L637.496667,118.500011 L652.189674,147.402702 L640.18994,147.4827 L640.309949,165.483967 L652.309682,165.403969 L638.003333,194.499989 L623.310326,165.597298 L635.31006,165.5173 Z"/><path id="Rectangle" fill="#000" d="M145.662951,211.162951 L194.837049,260.337049 C209.286448,274.786448 209.286448,298.213552 194.837049,312.662951 L145.662951,361.837049 C131.213552,376.286448 107.786448,376.286448 93.3370491,361.837049 L44.1629509,312.662951 C29.7135521,298.213552 29.7135521,274.786448 44.1629509,260.337049 L93.3370491,211.162951 C107.786448,196.713552 131.213552,196.713552 145.662951,211.162951 Z"/><g id="Group-3" transform="translate(353.000000, 328.000000)"><path id="Path-2" stroke="#000" stroke-width="3" d="M0.02734375,-8.52651283e-14 C41.0017777,110.933744 102.082507,200.381177 183.269531,268.342298 C264.456556,336.303419 348.22153,381.525913 434.564453,404.00978"/><path id="Line" fill="#000" fill-rule="nonzero" d="M446.97799,407.647937 L426.026779,411.154609 L431.601926,392.990971 L446.97799,407.647937 Z"/></g><text id="Client" fill="#FFF" font-family="Helvetica-Bold, Helvetica" font-size="25" font-weight="bold"><tspan x="85.277" y="295">Client</tspan></text><g id="Group" transform="translate(291.000000, 194.000000)"><circle id="Oval" cx="91.933" cy="91.933" r="91.933" fill="#5645F5"/><text id="Admission-Control" fill="#FFF" font-family="Helvetica" font-size="25" font-weight="normal" line-spacing="30"><tspan x="33.84" y="86">Admission</tspan> <tspan x="51.205" y="116">Control</tspan></text></g><g id="Group" transform="translate(545.000000, 194.000000)"><circle id="Oval" cx="91.933" cy="91.933" r="91.933" fill="#5645F5"/><text id="Mempool" fill="#FFF" font-family="Helvetica" font-size="25" font-weight="normal"><tspan x="40.09" y="100">Mempool</tspan></text></g><g id="Group" transform="translate(799.000000, 194.000000)"><circle id="Oval" cx="91.933" cy="91.933" r="91.933" fill="#5645F5"/><text id="Consensus" fill="#FFF" font-family="Helvetica" font-size="25" font-weight="normal"><tspan x="29.463" y="100">Consensus</tspan></text></g><g id="Group" transform="translate(799.000000, 428.000000)"><circle id="Oval" cx="91.933" cy="91.933" r="91.933" fill="#5645F5"/><text id="Execution" fill="#FFF" font-family="Helvetica" font-size="25" font-weight="normal"><tspan x="36.605" y="100">Execution</tspan></text></g><g id="Group" transform="translate(546.000000, 429.000000)"><circle id="Oval" cx="91.933" cy="91.933" r="91.933" fill="#5645F5"/><text id="Virtual-Machine" fill="#FFF" font-family="Helvetica" font-size="25" font-weight="normal" line-spacing="30"><tspan x="56.789" y="86">Virtual</tspan> <tspan x="44.753" y="116">Machine</tspan></text></g><g id="Group" transform="translate(799.000000, 662.000000)"><circle id="Oval" cx="91.933" cy="91.933" r="91.933" fill="#5645F5"/><text id="Storage" fill="#FFF" font-family="Helvetica" font-size="25" font-weight="normal"><tspan x="48.219" y="100">Storage</tspan></text></g><path id="Line" fill="#000" fill-rule="nonzero" d="M272.5,287.983652 L206.5,287.983652 L205,287.983652 L205,284.983652 L206.5,284.983652 L272.5,284.983652 L272.5,276.983652 L291.5,286.483652 L272.5,295.983652 L272.5,287.983652 Z"/><g id="Group-2" transform="translate(542.000000, 17.000000)"><rect id="Rectangle" width="105" height="105" x="0" y="0" fill="#B3BCC3" opacity=".75" rx="28"/><rect id="Rectangle" width="105" height="105" x="30" y="0" fill="#B3BCC3" opacity=".75" rx="28"/><rect id="Rectangle" width="105" height="105" x="60" y="0" fill="#B3BCC3" opacity=".75" rx="28"/><rect id="Rectangle" width="105" height="105" x="90" y="0" fill="#B3BCC3" opacity=".75" rx="28"/><rect id="Rectangle" width="105" height="105" x="120" y="0" fill="#B3BCC3" opacity=".75" rx="28"/><rect id="Rectangle" width="105" height="105" x="150" y="0" fill="#B3BCC3" opacity=".75" rx="28"/><rect id="Rectangle" width="105" height="105" x="180" y="0" fill="#B3BCC3" opacity=".75" rx="28"/><rect id="Rectangle" width="105" height="105" x="210" y="0" fill="#B3BCC3" opacity=".75" rx="28"/><rect id="Rectangle" width="105" height="105" x="240" y="0" fill="#B3BCC3" opacity=".75" rx="28"/><rect id="Rectangle" width="105" height="105" x="270" y="0" fill="#B3BCC3" opacity=".75" rx="28"/><rect id="Rectangle" width="105" height="105" x="300" y="0" fill="#B3BCC3" opacity=".75" rx="28"/><rect id="Rectangle" width="105" height="105" x="330" y="0" fill="#B3BCC3" opacity=".75" rx="28"/><rect id="Rectangle" width="105" height="105" x="360" y="0" fill="#B3BCC3" opacity=".75" rx="28"/><text id="Other-Validators" fill="#FFF" font-family="Helvetica" font-size="25" font-weight="normal"><tspan x="143.102" y="61">Other Validators</tspan></text></g><text id="Validator" fill="#FFF" font-family="Helvetica" font-size="40" font-weight="normal"><tspan x="299" y="793">Validator</tspan></text></g></svg>