<svg xmlns="http://www.w3.org/2000/svg" xmlns:xlink="http://www.w3.org/1999/xlink" width="800" height="575" version="1.1" viewBox="0 0 800 575"><title>virtual-machine</title><desc>Created with Sketch.</desc><g id="virtual-machine" fill="none" fill-rule="evenodd" stroke="none" stroke-width="1"><rect width="800" height="575" x="0" y="0" fill="#B3BCC3"/><path id="Line" fill="#000" fill-rule="nonzero" d="M549.669503,397.17476 L476.759742,355.804614 L475.455128,355.064355 L476.935645,352.455128 L478.240258,353.195386 L551.15002,394.565532 L555.098065,387.607591 L566.934871,405.246753 L545.721458,404.1327 L549.669503,397.17476 Z"/><path id="Line" fill="#000" fill-rule="nonzero" d="M302.241931,369.307307 L204.187074,419.83339 L202.853684,420.520464 L201.479536,417.853684 L202.812926,417.16661 L300.867782,366.640527 L297.203386,359.529113 L318.444463,359.270975 L305.906327,376.41872 L302.241931,369.307307 Z"/><path id="Line" fill="#000" fill-rule="nonzero" d="M498.623807,257.980186 L651.294931,176.676037 L652.618894,175.970968 L654.029032,178.618894 L652.705069,179.323963 L500.033945,260.628112 L503.794313,267.689247 L482.558679,268.235023 L494.863439,250.919051 L498.623807,257.980186 Z"/><g id="Group" transform="translate(562.000000, 345.000000)"><circle id="Oval" cx="91.933" cy="91.933" r="91.933" fill="#5645F5"/><text id="Storage" fill="#FFF" font-family="Helvetica" font-size="25" font-weight="normal" line-spacing="30"><tspan x="48.219" y="101">Storage</tspan></text></g><path id="Line" fill="#000" fill-rule="nonzero" d="M297.718502,266.070225 L145.251641,178.299984 L143.951657,177.551625 L145.448375,174.951657 L146.748359,175.700016 L299.21522,263.470256 L303.206467,256.537007 L314.933328,274.249453 L293.727255,273.003474 L297.718502,266.070225 Z"/><g id="Group" transform="translate(562.000000, 85.000000)"><circle id="Oval" cx="91.933" cy="91.933" r="91.933" fill="#5645F5"/><text id="Execution" fill="#FFF" font-family="Helvetica" font-size="25" font-weight="normal" line-spacing="30"><tspan x="36.605" y="101">Execution</tspan></text></g><g id="Group" transform="translate(54.000000, 345.000000)"><circle id="Oval" cx="91.933" cy="91.933" r="91.933" fill="#5645F5"/><text id="Mempool" fill="#FFF" font-family="Helvetica" font-size="25" font-weight="normal" line-spacing="30"><tspan x="40.59" y="101">Mempool</tspan></text></g><g id="Group" transform="translate(54.000000, 85.000000)"><circle id="Oval" cx="91.933" cy="91.933" r="91.933" fill="#5645F5"/><text id="Admission-Control" fill="#FFF" font-family="Helvetica" font-size="25" font-weight="normal" line-spacing="30"><tspan x="34.34" y="86">Admission</tspan> <tspan x="51.705" y="116">Control</tspan></text></g><g id="Group" transform="translate(308.000000, 221.000000)"><circle id="Oval" cx="91.933" cy="91.933" r="91.933" fill="#2A227A"/><text id="Virtual-Machine" fill="#FFF" font-family="Helvetica" font-size="25" font-weight="normal" line-spacing="30"><tspan x="56.789" y="86">Virtual</tspan> <tspan x="44.753" y="116">Machine</tspan></text></g><text id="VM.1" fill="#15112C" font-family="Helvetica-Bold, Helvetica" font-size="25" font-weight="bold" letter-spacing="-1"><tspan x="250.825" y="227">VM.</tspan> <tspan x="292.271" y="227">1</tspan></text><text id="VM.4" fill="#15112C" font-family="Helvetica-Bold, Helvetica" font-size="25" font-weight="bold" letter-spacing="-1"><tspan x="232.825" y="356">VM.</tspan> <tspan x="274.271" y="356">4</tspan></text><text id="VM.3" fill="#15112C" font-family="Helvetica-Bold, Helvetica" font-size="25" font-weight="bold" letter-spacing="-1"><tspan x="484.825" y="222">VM.</tspan> <tspan x="526.271" y="222">3</tspan></text><text id="VM.2" fill="#15112C" font-family="Helvetica-Bold, Helvetica" font-size="25" font-weight="bold" letter-spacing="-1"><tspan x="504.825" y="361">VM.</tspan> <tspan x="546.271" y="361">2</tspan></text><text id="Virtual-Machine" fill="#FFF" font-family="Helvetica" font-size="40" font-weight="normal"><tspan x="30" y="61">Virtual Machine</tspan></text></g></svg>